<svg xmlns="http://www.w3.org/2000/svg" width="32" height="28" viewBox="0 0 32 28">
  <g id="menu-left-alt" transform="translate(-8 -10)">
    <g id="그룹_766" data-name="그룹 766">
      <path id="패스_147" data-name="패스 147" d="M8,12a2,2,0,0,1,2-2H38a2,2,0,0,1,0,4H10A2,2,0,0,1,8,12Z" fill="#313131"/>
      <path id="패스_148" data-name="패스 148" d="M8,36a2,2,0,0,1,2-2H38a2,2,0,0,1,0,4H10A2,2,0,0,1,8,36Z" fill="#313131"/>
      <path id="패스_149" data-name="패스 149" d="M10,22a2,2,0,0,0,0,4H26a2,2,0,0,0,0-4Z" fill="#313131"/>
    </g>
  </g>
</svg>
